<?xml version="1.0" encoding="UTF-8"?>
<svg version="1.1" xmlns="http://www.w3.org/2000/svg" width="800" height="498">
<path d="M0 0 C1.25324066 -0.0071553 2.50648132 -0.01431061 3.79769897 -0.02168274 C5.18930029 -0.02452301 6.58090187 -0.02723474 7.97250366 -0.02983093 C9.43615887 -0.03609664 10.89981248 -0.04274353 12.36346436 -0.04974365 C17.17372532 -0.07077882 21.98398657 -0.08114749 26.79428101 -0.09111023 C28.45175569 -0.09515839 30.10923021 -0.09927533 31.76670456 -0.10346031 C39.55630169 -0.12251305 47.34588936 -0.13674229 55.13550532 -0.14507228 C64.11769709 -0.15483675 73.09964191 -0.18113515 82.0817467 -0.22157317 C89.02966314 -0.25177582 95.97750898 -0.2665452 102.92548978 -0.26985329 C107.07242311 -0.27219962 111.21909264 -0.28110499 115.36595535 -0.30631447 C119.27140261 -0.32967218 123.17641387 -0.3337978 127.08191299 -0.32355309 C128.51010085 -0.32305943 129.93831073 -0.32932946 131.36643219 -0.34310913 C141.44337338 -0.43484591 149.63978447 0.51831685 157.31771851 7.52217102 C157.93260132 8.0661554 158.54748413 8.61013977 159.18099976 9.17060852 C163.82009581 14.19712373 166.26784759 19.7512927 168.72421265 26.04438782 C169.0760474 26.9290592 169.42788216 27.81373058 169.79037857 28.72521019 C170.96357113 31.67972889 172.12686189 34.6380472 173.29037476 37.59638977 C174.13021577 39.71623808 174.97074303 41.83581463 175.81190491 43.95513916 C177.62091796 48.51636987 179.42581591 53.07919861 181.22750854 57.64332581 C185.57171163 68.64718195 189.93720011 79.64260245 194.30081558 90.63877106 C195.30918785 93.17995878 196.31719438 95.72129113 197.32488632 98.26274872 C207.92618414 124.99950828 218.64317478 151.68919396 229.3854866 178.36960983 C233.39963244 188.3411793 237.40951947 198.31446291 241.41928101 208.28779602 C241.83892939 209.33155081 242.25857777 210.3753056 242.69094276 211.45068932 C249.70372709 228.89460674 256.70686513 246.34231475 263.65426636 263.81239319 C264.62311661 266.24757998 265.59336735 268.68221013 266.56515503 271.1162262 C267.84375622 274.32016224 269.11689121 277.52620637 270.38803101 280.73310852 C270.74924042 281.63575439 271.11044983 282.53840027 271.48260498 283.46839905 C279.15757388 302.92669272 269.32850873 319.78690479 262.01693726 338.03779602 C261.11994373 340.28758685 260.22338231 342.53755 259.32722473 344.78767395 C256.94553296 350.76376176 254.55742028 356.73726219 252.16754913 362.71008301 C250.19957397 367.63003619 248.23465956 372.55120929 246.26970673 377.47237015 C241.47079328 389.49081722 236.66514151 401.50655587 231.8560257 413.52092361 C228.85270019 421.02537377 225.85609839 428.53247159 222.86491108 436.04176712 C220.42849271 442.15785988 217.98496066 448.27107041 215.53662109 454.38240051 C214.60787807 456.70344189 213.68153988 459.02544717 212.75775146 461.34846497 C211.51683385 464.46665492 210.26641951 467.58085229 209.01303101 470.69404602 C208.67227036 471.55663025 208.3315097 472.41921448 207.98042297 473.30793762 C205.17781854 480.21684806 201.89459586 487.0444032 196.13021851 491.95967102 C195.51404663 492.50236633 194.89787476 493.04506165 194.26303101 493.60420227 C188.33931083 497.65241934 183.23047046 498.70386091 176.19271851 498.64717102 C175.00512939 498.64185364 175.00512939 498.64185364 173.79354858 498.63642883 C167.24089626 498.45107144 162.40909529 496.95318691 157.00521851 493.14717102 C156.09771851 492.59029602 155.19021851 492.03342102 154.25521851 491.45967102 C147.17281473 484.18053381 143.76654087 474.19836829 140.14974976 464.90498352 C139.58336823 463.46969228 139.01615079 462.03473068 138.44818115 460.60006714 C137.21626866 457.48363635 135.98981857 454.36513153 134.76751709 451.24491882 C132.76465403 446.13289049 130.74888208 441.02601063 128.73104858 435.9198761 C126.5270191 430.34119366 124.32362292 424.76226711 122.12397766 419.18185425 C113.76520848 397.97830777 105.33413242 376.80363396 96.89950562 355.63017273 C94.63463145 349.94457976 92.3709237 344.25852322 90.10756302 338.57232761 C80.25472196 313.82006083 70.38300043 289.0754402 60.48178101 264.34248352 C60.0099193 263.16364656 59.53805759 261.98480961 59.05189705 260.77025032 C54.51191386 249.42828463 49.97065391 238.08683527 45.42351341 226.74773693 C37.16296731 206.14573678 28.95189528 185.52770004 20.91043854 164.83910942 C13.29894602 145.26176413 5.49184115 125.76388583 -2.32992554 106.26979065 C-4.18713288 101.64070572 -6.0432051 97.01116593 -7.89907837 92.38154602 C-8.26294018 91.47398088 -8.62680199 90.56641573 -9.00168991 89.63134861 C-11.77095605 82.7224237 -14.53250981 75.81043597 -17.29141617 68.89736843 C-19.17502435 64.18234542 -21.07972383 59.476663 -22.99966431 54.77632141 C-23.82500766 52.73202896 -24.65021796 50.68768278 -25.47525024 48.64326477 C-26.01308388 47.35233414 -26.01308388 47.35233414 -26.56178284 46.0353241 C-30.11047341 37.16587952 -30.84838431 28.34991983 -28.09243774 19.12763977 C-24.2167018 10.42354593 -17.73191525 4.68001206 -8.99478149 1.14717102 C-5.75867609 0.06846922 -3.40473695 0.01332795 0 0 Z " fill="#B00CAF" transform="translate(28.994781494140625,-0.1471710205078125)"/>
<path d="M0 0 C1.25324066 -0.0071553 2.50648132 -0.01431061 3.79769897 -0.02168274 C5.18930029 -0.02452301 6.58090187 -0.02723474 7.97250366 -0.02983093 C9.43615887 -0.03609664 10.89981248 -0.04274353 12.36346436 -0.04974365 C17.17372532 -0.07077882 21.98398657 -0.08114749 26.79428101 -0.09111023 C28.45175569 -0.09515839 30.10923021 -0.09927533 31.76670456 -0.10346031 C39.55630169 -0.12251305 47.34588936 -0.13674229 55.13550532 -0.14507228 C64.11769709 -0.15483675 73.09964191 -0.18113515 82.0817467 -0.22157317 C89.02966314 -0.25177582 95.97750898 -0.2665452 102.92548978 -0.26985329 C107.07242311 -0.27219962 111.21909264 -0.28110499 115.36595535 -0.30631447 C119.27140261 -0.32967218 123.17641387 -0.3337978 127.08191299 -0.32355309 C128.51010085 -0.32305943 129.93831073 -0.32932946 131.36643219 -0.34310913 C141.44337338 -0.43484591 149.63978447 0.51831685 157.31771851 7.52217102 C157.93260132 8.0661554 158.54748413 8.61013977 159.18099976 9.17060852 C163.82009581 14.19712373 166.26784759 19.7512927 168.72421265 26.04438782 C169.0760474 26.9290592 169.42788216 27.81373058 169.79037857 28.72521019 C170.96357113 31.67972889 172.12686189 34.6380472 173.29037476 37.59638977 C174.13021577 39.71623808 174.97074303 41.83581463 175.81190491 43.95513916 C177.62091796 48.51636987 179.42581591 53.07919861 181.22750854 57.64332581 C185.57171163 68.64718195 189.93720011 79.64260245 194.30081558 90.63877106 C195.30918785 93.17995878 196.31719438 95.72129113 197.32488632 98.26274872 C207.92618414 124.99950828 218.64317478 151.68919396 229.3854866 178.36960983 C233.39963244 188.3411793 237.40951947 198.31446291 241.41928101 208.28779602 C241.83892939 209.33155081 242.25857777 210.3753056 242.69094276 211.45068932 C249.70372709 228.89460674 256.70686513 246.34231475 263.65426636 263.81239319 C264.62311661 266.24757998 265.59336735 268.68221013 266.56515503 271.1162262 C267.84375622 274.32016224 269.11689121 277.52620637 270.38803101 280.73310852 C270.74924042 281.63575439 271.11044983 282.53840027 271.48260498 283.46839905 C279.21599962 303.07481907 269.41248988 320.6890499 261.98178101 338.98701477 C261.08176648 341.21834604 260.18240229 343.44993973 259.28364563 345.68177795 C256.89771131 351.60194184 254.503445 357.51870107 252.10744095 363.43479538 C249.64259994 369.52484851 247.18526607 375.61792803 244.72763062 381.71089172 C241.81759742 388.92453059 238.90714968 396.13799884 235.99330139 403.35009766 C230.77113933 416.27701152 225.56584527 429.21025383 220.40756226 442.16279602 C220.00824493 443.16496501 220.00824493 443.16496501 219.6008606 444.18737984 C217.48184674 449.50568559 215.36452349 454.82465628 213.25479126 460.14665222 C212.07156545 463.13103235 210.88443356 466.11383152 209.69662476 469.09638977 C209.21056007 470.32938812 209.21056007 470.32938812 208.7146759 471.58729553 C203.01462793 485.8706164 203.01462793 485.8706164 197.00521851 491.14717102 C196.22146851 491.84842102 195.43771851 492.54967102 194.63021851 493.27217102 C188.63729152 497.55283316 183.41098509 498.70608003 176.19271851 498.64717102 C175.40099243 498.642901 174.60926636 498.63863098 173.79354858 498.63423157 C165.76633803 498.40140379 160.43541334 495.95369406 154.25521851 490.89717102 C148.74870858 484.16699223 144.92765778 477.30130343 141.87240601 469.18232727 C141.4919664 468.20051987 141.11152679 467.21871246 140.71955872 466.20715332 C139.88037963 464.0392853 139.04592594 461.86958368 138.21557617 459.69831848 C136.06949209 454.09163273 133.89037369 448.49781043 131.71273994 442.90332413 C131.17630062 441.52474684 130.64024965 440.14601839 130.10456657 438.76714706 C123.01968428 420.53077117 115.73037915 402.37652027 108.44869995 384.21805573 C104.94250504 375.47293294 101.44077228 366.72602154 97.93881226 357.97920227 C97.53849163 356.97943359 97.13817101 355.97966492 96.72571945 354.94960022 C86.28804768 328.8799144 75.91112554 302.78606768 65.5311203 276.69338226 C54.90172758 249.97443182 44.25919176 223.26088216 33.57162476 196.56513977 C33.1016658 195.39111792 32.63170685 194.21709606 32.14750671 193.00749779 C27.62991377 181.72212422 23.11087131 170.43733594 18.58626842 159.15477085 C9.31442769 136.03092013 0.11460527 112.88171336 -8.91984558 89.66392517 C-14.76927503 74.64229173 -20.81117035 59.70459709 -26.97354126 44.80879211 C-29.94479818 37.0649138 -30.50556431 26.83677662 -28.05728149 18.83467102 C-24.22730195 10.57853588 -17.31972708 4.44844255 -8.99478149 1.14717102 C-5.75867609 0.06846922 -3.40473695 0.01332795 0 0 Z " fill="#B00CAF" transform="translate(524.9947814941406,-0.1471710205078125)"/>
<path d="M0 0 C1.28393646 -0.00686325 2.56787292 -0.0137265 3.89071655 -0.02079773 C7.39287479 -0.03865514 10.89478147 -0.03757491 14.39697146 -0.03185534 C17.32923001 -0.02875273 20.26144099 -0.0348678 23.19369274 -0.04089409 C30.11533457 -0.0549133 37.03685289 -0.05339977 43.95849609 -0.04199219 C51.08067685 -0.03051292 58.20248095 -0.04458909 65.32461208 -0.07138866 C71.4573742 -0.0935947 77.59001852 -0.10017206 83.72281796 -0.09431225 C87.37781334 -0.09095321 91.03256734 -0.09328708 94.68752861 -0.11056328 C98.76588414 -0.12900166 102.84351376 -0.11479517 106.921875 -0.09765625 C108.12059738 -0.10732422 109.31931976 -0.11699219 110.55436707 -0.12695312 C120.30143756 -0.04136101 128.8014792 2.60809589 136.02563477 9.40405273 C141.37769583 15.96524736 144.18410673 23.33085638 146.97485352 31.23608398 C147.42861787 32.49311187 147.88349208 33.74973959 148.33938599 35.0059967 C149.30690613 37.67908151 150.26691924 40.35469169 151.22085571 43.03265381 C152.73391192 47.28009652 154.26362194 51.52142258 155.79589844 55.76196289 C157.62554602 60.82878733 159.4514022 65.89694282 161.27176762 70.96710968 C165.36342665 82.36292943 169.51295455 93.73729815 173.67678833 105.10693359 C174.84576201 108.2998859 176.01299194 111.49347049 177.1796875 114.68725586 C182.3612175 128.86999557 187.56452167 143.04466043 192.77563477 157.21655273 C202.19298574 182.82827106 211.55467894 208.46023634 220.90237427 234.09744263 C223.53911796 241.32900727 226.17773519 248.55988371 228.81863403 255.78993225 C230.33186806 259.93389257 231.84342044 264.07846462 233.35443115 268.22323608 C234.04519389 270.11706081 234.73662751 272.010641 235.42877197 273.90396118 C236.36658402 276.46971758 237.30191017 279.03636627 238.23657227 281.60327148 C238.50830261 282.34487518 238.78003296 283.08647888 239.05999756 283.85055542 C245.94440524 302.80218826 236.92939336 319.73121671 230.40063477 337.65405273 C229.64583916 339.73293457 228.89120392 341.81187463 228.13671875 343.89086914 C220.97251945 363.61420511 213.73584195 383.3110086 206.48500061 403.00262451 C203.67247984 410.64214062 200.86729486 418.28432876 198.06469727 425.92749023 C196.84183174 429.26126734 195.61890148 432.59502069 194.39596558 435.92877197 C193.61873536 438.0480824 192.84180956 440.16750451 192.06521606 442.28704834 C190.01573109 447.88014123 187.96107388 453.47124201 185.89334106 459.05761719 C185.3416031 460.54961694 184.7915092 462.04222648 184.24362183 463.53564453 C183.5757379 465.35349784 182.89872655 467.16799063 182.22094727 468.98217773 C181.86919434 469.92996094 181.51744141 470.87774414 181.1550293 471.85424805 C177.18265345 480.82257777 170.71437829 486.06162893 161.83813477 489.71655273 C152.35421116 491.42676847 143.50510929 491.32621346 135.02563477 486.40405273 C126.06091528 480.16978479 121.84692999 471.80205866 118.26782227 461.73217773 C117.7570665 460.33101715 117.7570665 460.33101715 117.23599243 458.90155029 C116.11565916 455.82207758 115.00824066 452.73812348 113.90063477 449.65405273 C113.10663311 447.46491667 112.31169267 445.2761209 111.51586914 443.08764648 C109.85031433 438.50394804 108.18955633 433.91855393 106.5324707 429.33178711 C102.95113251 419.42474775 99.32863777 409.53277817 95.70901489 399.63967896 C94.51723525 396.38108657 93.32675435 393.12202266 92.13671875 389.86279297 C86.76143624 375.14152048 81.36909006 360.4265881 75.96313477 345.71655273 C75.59332489 344.71024811 75.22351501 343.70394348 74.84249878 342.66714478 C72.23754102 335.57920343 69.63169493 328.49158882 67.02563477 321.40405273 C64.04584727 313.30011419 61.06647123 305.19602469 58.08813477 297.09155273 C57.71840546 296.08548981 57.34867615 295.07942688 56.96774292 294.0428772 C50.7342473 277.07848507 44.52787443 260.10426421 38.3291626 243.12713623 C32.55642013 227.31773732 26.76869021 211.51393196 20.96313477 195.71655273 C20.40841995 194.20709579 20.40841995 194.20709579 19.84249878 192.66714478 C17.23754102 185.57920343 14.63169493 178.49158882 12.02563477 171.40405273 C9.04584727 163.30011419 6.06645987 155.19602886 3.08813477 147.09155273 C2.72073181 146.0918042 2.35332886 145.09205566 1.97479248 144.06201172 C-2.34059913 132.31748675 -6.6478048 120.57000027 -10.94311523 108.81811523 C-11.35619431 107.68805054 -11.76927338 106.55798584 -12.19487 105.39367676 C-14.24006654 99.797008 -16.28281862 94.19946407 -18.32128906 88.6003418 C-21.69705821 79.33302618 -25.08206528 70.0714244 -28.57983398 60.84936523 C-29.3512196 58.80182917 -30.12185528 56.75401223 -30.8923645 54.70614624 C-31.56578171 52.93012354 -32.25394877 51.15971436 -32.94287109 49.38964844 C-37.09196944 38.36407834 -38.27701134 28.5909326 -33.97436523 17.40405273 C-29.81122782 9.92046736 -23.54148079 3.99643247 -15.47852898 1.05218315 C-10.40580547 -0.26074473 -5.20826036 -0.01952598 0 0 Z " fill="#B00CAF" transform="translate(296.974365234375,-0.404052734375)"/>
</svg>
